<svg width="144" height="181" viewBox="0 0 144 181" fill="none" xmlns="http://www.w3.org/2000/svg">
<g id="Vectors" clip-path="url(#clip0_1_498)">
<path id="Vector" d="M39.7354 148.876C44.6486 145.273 51.5529 146.334 55.1565 151.248C58.7599 156.161 57.6982 163.066 52.7849 166.669L44.5474 172.71C39.6342 176.313 32.7299 175.252 29.1263 170.34C25.5228 165.426 26.5845 158.521 31.4979 154.918L39.7354 148.876Z" fill="#E619DF"/>
<path id="Vector_2" fill-rule="evenodd" clip-rule="evenodd" d="M37.2363 150.711C40.5548 155.6 39.4325 162.277 34.6294 165.798L28.8896 170.009C25.5711 165.121 26.6934 158.444 31.4965 154.921L37.2363 150.711Z" fill="#C128C1"/>
<path id="Vector_3" d="M17.596 146.489C22.5092 142.885 29.4134 143.947 33.0169 148.86C36.6205 153.773 35.5588 160.678 30.6455 164.281L22.408 170.323C17.4946 173.926 10.5904 172.864 6.98691 167.952C3.38337 163.038 4.44511 156.133 9.35837 152.53L17.596 146.489Z" fill="#E619DF"/>
<path id="Vector_4" d="M9.08665 110.541L41.5608 33.5484C56.9342 31.5544 75.5831 58.5822 64.6268 90.0895C54.9448 117.933 31.17 123.578 12.1208 117.62C9.17563 116.699 7.88742 113.384 9.08665 110.541Z" fill="url(#paint0_radial_1_498)"/>
<path id="Vector_5" d="M95.932 12.7232C90.1143 11.8613 66.3139 -8.11426 38.8425 4.59226C28.4196 9.41326 23.4177 18.0895 21.8548 31.0401C20.4699 42.5162 25.1414 54.187 28.76 66.7016C24.2014 81.0918 21.2174 91.1185 26.0589 103.777C34.918 126.939 63.1549 151.071 100.828 137.606C157.497 117.352 141.103 47.1601 136.794 31.6461C132.484 16.1321 122.903 9.06126 114.931 9.70768C106.958 10.3541 101.75 13.585 95.932 12.7232Z" fill="url(#paint1_radial_1_498)"/>
<path id="Vector_6" fill-rule="evenodd" clip-rule="evenodd" d="M38.286 123.103C45.61 120.757 53.8817 116.124 62.0483 107.087C63.028 106.003 62.9433 104.33 61.8593 103.35C60.7751 102.371 59.1022 102.455 58.1226 103.539C50.5637 111.904 43.0706 116.024 36.6203 118.08C35.9109 118.307 35.2129 118.508 34.5271 118.688C35.698 120.2 36.9522 121.676 38.286 123.103Z" fill="#1F66FB"/>
<path id="Vector_7" fill-rule="evenodd" clip-rule="evenodd" d="M135.891 38.4149C134.555 28.1999 129.185 24.1227 125.586 24.5933C121.987 25.0638 122.443 29.6162 123.779 39.8312C124.288 43.7264 124.504 45.8259 124.616 47.0832C127.086 48.8553 128.866 51.6115 128.866 54.7815C128.246 54.9736 127.566 55.1373 126.842 55.2742C127.532 56.7904 128.383 58.3215 129.345 59.4329C132.029 56.1936 135.308 54.123 137.612 53.0473C137.579 51.8592 137.465 50.4913 137.259 48.9155L135.891 38.4149Z" fill="#C7FFFE"/>
<path id="Vector_8" fill-rule="evenodd" clip-rule="evenodd" d="M124.616 47.0884C125.797 47.9355 126.82 49.0073 127.566 50.2416L127.734 50.2179C130.488 49.8285 132.404 47.2807 132.015 44.5268L130.291 32.3325C129.925 29.7459 127.655 27.8979 125.098 28.0056C126.11 28.7244 126.77 29.9058 126.77 31.2413C126.77 33.2985 125.204 34.9899 123.199 35.1879C123.358 36.5845 123.556 38.1316 123.779 39.8362C124.289 43.7316 124.504 45.8311 124.616 47.0884Z" fill="#3C4DFF"/>
<path id="Vector_9" fill-rule="evenodd" clip-rule="evenodd" d="M80.4069 18.6156C90.2774 17.3249 99.3619 24.5593 100.698 34.7742L102.058 45.1781C102.91 51.6889 100.408 57.839 95.9252 61.7775C89.4638 56.9238 79.1146 51.0272 66.3009 49.7519L64.9535 39.4484C63.6177 29.2335 70.5365 19.9064 80.4069 18.6156Z" fill="#C7FFFE"/>
<path id="Vector_10" fill-rule="evenodd" clip-rule="evenodd" d="M81.592 34.7121C84.6969 34.1838 86.7826 31.2838 86.2505 28.235C86.0931 27.3333 85.7243 26.5194 85.2026 25.8342C85.8463 25.5551 86.5355 25.3476 87.2612 25.2241C91.9568 24.425 96.4032 27.4433 97.1925 31.9656L98.7169 40.7001C99.5062 45.2224 96.3395 49.5362 91.6439 50.3355C86.9483 51.1345 82.5019 48.1162 81.7126 43.5939L80.1882 34.8596C80.1834 34.8327 80.1789 34.8058 80.1745 34.7788C80.6377 34.8139 81.1129 34.7936 81.592 34.7121Z" fill="#3C4DFF"/>
<path id="Vector_11" fill-rule="evenodd" clip-rule="evenodd" d="M109.218 57.2164C110.049 57.135 110.789 57.7428 110.87 58.5738C111.512 65.1376 113.237 69.5447 115.583 71.6027C116.7 72.583 117.978 73.0524 119.475 72.9813C121.016 72.9082 122.902 72.2544 125.146 70.7587C125.84 70.2956 126.779 70.4833 127.242 71.1781C127.705 71.8727 127.518 72.8113 126.823 73.2745C124.297 74.9582 121.884 75.8941 119.618 76.0015C117.308 76.111 115.272 75.3521 113.589 73.8755C110.334 71.0199 108.519 65.5998 107.861 58.8681C107.779 58.0372 108.387 57.2976 109.218 57.2164Z" fill="#0455FF"/>
<path id="Vector_12" d="M120.228 68.9275C116.403 68.3048 116.003 65.4135 113.289 55.2718H123.431C123.653 56.9621 124.276 62.1664 124.588 64.3904C124.962 67.069 123.52 69.4631 120.228 68.9275Z" fill="#0455FF"/>
<path id="Vector_13" fill-rule="evenodd" clip-rule="evenodd" d="M112.709 46.6869C113.313 47.2627 114.242 47.6842 115.539 47.7395C115.676 47.7453 115.811 47.7506 115.944 47.7558C118.443 47.8539 120.31 47.9273 122.055 50.9402C122.85 52.3147 126.354 52.2832 126.928 49.2996C124.907 46.6755 121.596 44.9892 118.429 44.9893C116.269 44.9893 114.31 45.6409 112.709 46.6869Z" fill="#C7FFFE"/>
<path id="Vector_14" fill-rule="evenodd" clip-rule="evenodd" d="M107.423 54.2147C107.636 53.4073 108.462 52.9252 109.27 53.1378C116.419 55.0212 123.094 54.2721 127.201 53.4507C128.02 53.287 128.816 53.8179 128.98 54.6367C129.144 55.4553 128.613 56.2518 127.794 56.4156C123.45 57.2845 116.266 58.1075 108.5 56.0616C107.692 55.849 107.21 55.0219 107.423 54.2147Z" fill="#0455FF"/>
<path id="Vector_15" fill-rule="evenodd" clip-rule="evenodd" d="M63.2759 8.06839C62.4382 7.75679 61.6203 7.73086 60.7825 8.24087C60.0692 8.67501 59.1392 8.44881 58.7051 7.73564C58.2709 7.02245 58.4971 6.09236 59.2103 5.65822C61.0316 4.54952 62.8605 4.68799 64.3299 5.23453C65.7489 5.7623 66.9009 6.68764 67.5949 7.30459C68.2189 7.85929 68.2752 8.81484 67.7205 9.43887C67.1659 10.0629 66.2102 10.1191 65.5862 9.56442C64.9797 9.02524 64.164 8.39875 63.2759 8.06839Z" fill="#C7FFFE"/>
<path id="Vector_16" fill-rule="evenodd" clip-rule="evenodd" d="M113.267 11.0305C113.979 10.5944 114.91 10.8181 115.346 11.5301C117.232 14.6095 117.783 17.4627 116.842 19.7008C115.868 22.0178 113.559 23.0844 111.093 23.0844C110.258 23.0844 109.581 22.4076 109.581 21.5727C109.581 20.7378 110.258 20.0608 111.093 20.0608C112.747 20.0608 113.692 19.3927 114.055 18.529C114.451 17.5864 114.424 15.813 112.768 13.1093C112.331 12.3973 112.555 11.4666 113.267 11.0305Z" fill="#1F66FB"/>
<path id="Vector_17" fill-rule="evenodd" clip-rule="evenodd" d="M60.6716 5.6806C61.4036 6.08206 61.6716 7.00098 61.2702 7.73306C59.6246 10.7336 60.4403 14.4062 60.9419 15.9107L61.3111 17.0186L60.3326 17.6556C60.0436 17.8439 59.5163 18.3499 58.8733 19.237C58.2529 20.0929 57.5914 21.2112 57.0017 22.5172C55.8172 25.1401 54.9706 28.4107 55.2342 31.7326C55.9602 40.8804 56.9646 50.0916 58.4931 54.955C58.5625 55.1756 58.6323 55.4021 58.7039 55.6338C59.4746 58.1295 60.4326 61.2319 62.8377 64.1241C65.4237 67.2338 69.8077 70.2239 77.8185 71.5475C90.7705 73.6873 98.188 69.7555 100.07 67.9124C100.667 67.3282 101.624 67.3382 102.208 67.9349C102.792 68.5315 102.782 69.4886 102.186 70.0727C99.4437 72.7576 90.9645 76.7839 77.3257 74.5306C68.7171 73.1082 63.6354 69.8121 60.5129 66.0573C57.7029 62.6782 56.582 59.0269 55.8196 56.5435C55.7463 56.305 55.6765 56.0772 55.6086 55.8615C53.9579 50.6089 52.9393 41.0329 52.2202 31.9718C51.9057 28.0099 52.9137 24.2233 54.246 21.2727C54.9148 19.7919 55.6773 18.4944 56.4253 17.4626C56.8622 16.8598 57.3208 16.3104 57.7797 15.8626C57.2293 13.7132 56.6932 9.79098 58.6191 6.27921C59.0205 5.54714 59.9394 5.27914 60.6716 5.6806Z" fill="#1F66FB"/>
<path id="Vector_18" fill-rule="evenodd" clip-rule="evenodd" d="M142.253 66.6227C141.902 67.3081 141.229 68.1561 140.27 68.6678C139.275 69.199 137.814 69.4565 135.727 68.4861C134.97 68.1339 134.071 68.4622 133.719 69.2193C133.367 69.9764 133.695 70.8754 134.452 71.2276C137.337 72.5694 139.801 72.3453 141.694 71.335C141.914 71.2176 142.124 71.0908 142.324 70.9565C142.326 69.4967 142.301 68.0507 142.253 66.6227Z" fill="#0455FF"/>
<path id="Vector_19" fill-rule="evenodd" clip-rule="evenodd" d="M70.036 5.54572C69.226 5.32355 68.8379 5.32249 68.7285 5.34353C67.9086 5.50121 67.116 4.96437 66.9583 4.14447C66.8008 3.32456 67.3376 2.53207 68.1574 2.3744C68.9874 2.2148 69.9459 2.38576 70.8357 2.62984C71.7783 2.88836 72.8746 3.2974 74.0785 3.80703C76.488 4.82712 79.4852 6.31821 82.8183 8.0217C83.9042 8.57666 85.0279 9.15521 86.1823 9.74966C92.1557 12.8254 98.9552 16.3265 105.626 19.1856C107.767 20.1035 110.119 20.141 110.782 20.0673C111.612 19.9752 112.359 20.573 112.452 21.4028C112.544 22.2327 111.946 22.9802 111.116 23.0724C110.044 23.1915 107.149 23.1281 104.434 21.9647C97.6562 19.0593 90.7439 15.4997 84.7726 12.4248C83.6252 11.8339 82.5126 11.261 81.4423 10.714C78.1034 9.00753 75.1962 7.56353 72.8997 6.59133C71.7506 6.10483 70.7934 5.75343 70.036 5.54572Z" fill="#C7FFFE"/>
<g id="Group" style="mix-blend-mode:overlay">
<path id="Vector_20" d="M97.0169 94.6376L111.459 94.8198C112.233 94.8296 112.752 95.7181 112.483 96.5744C111.192 100.689 107.752 103.498 103.936 103.45C100.12 103.401 96.8782 100.508 95.8726 96.3647C95.6634 95.5024 96.2428 94.6278 97.0169 94.6376Z" fill="#204AFF"/>
</g>
<g id="Group_2" style="mix-blend-mode:overlay">
<path id="Vector_21" d="M121.125 95.0241L133.964 94.6095C134.74 94.5833 135.275 95.4449 135.021 96.3109C133.799 100.472 131.483 103.242 127.658 103.371C123.832 103.5 121.089 100.882 120.008 96.7987C119.783 95.9489 120.348 95.0502 121.125 95.0241Z" fill="#204AFF"/>
</g>
<g id="Group_3" style="mix-blend-mode:overlay">
<path id="Vector_22" d="M109.116 110.521L122.413 110.715C123.188 110.697 123.724 111.566 123.471 112.43C122.257 116.583 120.032 118.985 116.211 119.072C112.391 119.159 109.09 116.386 108.004 112.285C107.778 111.432 108.341 110.538 109.116 110.521Z" fill="#204AFF"/>
</g>
</g>
<defs>
<radialGradient id="paint0_radial_1_498" cx="0" cy="0" r="1" gradientUnits="userSpaceOnUse" gradientTransform="translate(112.284 18.9142) rotate(119.366) scale(133.976 179.711)">
<stop stop-color="#26FF55"/>
<stop offset="0.569543" stop-color="#268AFF"/>
<stop offset="0.987801" stop-color="#FC55FF"/>
</radialGradient>
<radialGradient id="paint1_radial_1_498" cx="0" cy="0" r="1" gradientUnits="userSpaceOnUse" gradientTransform="translate(112.284 18.9142) rotate(119.366) scale(133.976 179.711)">
<stop stop-color="#26FF55"/>
<stop offset="0.569543" stop-color="#268AFF"/>
<stop offset="0.987801" stop-color="#FC55FF"/>
</radialGradient>
<clipPath id="clip0_1_498">
<rect width="143.077" height="180" fill="white" transform="translate(0.461548 0.375)"/>
</clipPath>
</defs>
</svg>
