<svg width="35" height="35" viewBox="0 0 35 35" fill="none" xmlns="http://www.w3.org/2000/svg">
<g id="Frame">
<path id="Vector" fill-rule="evenodd" clip-rule="evenodd" d="M4.04742 4.81658C4.04742 4.61004 4.06386 4.41677 4.09529 4.23753L16.9603 17.8193L4.07466 31.4228C4.05671 31.2828 4.04742 31.1351 4.04742 30.9798V4.81658ZM5.46527 33.0892C5.93871 33.1657 6.49998 33.0505 7.1005 32.7151L22.7673 23.9498L18.4449 19.3865L5.46527 33.0892ZM19.9294 17.8193L24.7087 22.8647L30.5312 19.6076C32.2098 18.6672 32.2098 17.1293 30.5312 16.1911L24.6098 12.8783L19.9294 17.8193ZM22.6691 11.7925L7.1005 3.0823C6.61748 2.81139 6.15971 2.68363 5.75359 2.68363C5.70102 2.68363 5.6493 2.68575 5.59849 2.68998L18.4449 16.2521L22.6691 11.7925Z" fill="#4B4B4B"/>
</g>
</svg>
